<svg id="Layer_1" data-name="Layer 1" xmlns="http://www.w3.org/2000/svg" viewBox="0 0 319 133.72"><defs><style>.cls-1{fill:#bf5700;}.cls-2{fill:#323f48;}</style></defs><title>orange_dol_square</title><rect class="cls-1" x="2.76" y="118.06" width="128.34" height="12.83"/><path class="cls-1" d="M4.23,95.18c0-10.47,6.84-15.46,14-15.46s14,5,14,15.46-6.84,15.46-14,15.46S4.23,105.65,4.23,95.18Zm21.54,0c0-6.24-2.9-10-7.49-10s-7.49,3.78-7.49,10,2.86,10.18,7.49,10.18S25.77,101.42,25.77,95.18Z"/><path class="cls-1" d="M41.06,110.07V80.29H50.2c9.1,0,15.94,3.86,15.94,14.73,0,11.19-7,15.05-15.94,15.05Zm6.52-5.31h3.06c6.48,0,8.94-2.9,8.94-9.66,0-6.36-2.5-9.34-9-9.34h-3Z"/><path class="cls-1" d="M74.87,110.07V80.29H95.16v5.47H81.44v6.4h9.94v5.19H81.44v7.41H95.89v5.31Z"/><path class="cls-1" d="M104.38,110.07V80.29h6.56l12.48,19h.08v-19h6v29.79h-6l-13-19.16h-.08v19.16Z"/><rect class="cls-1" x="16.77" y="2.55" width="30.57" height="11.68"/><rect class="cls-1" x="2.76" y="16.56" width="11.69" height="30.57"/><rect class="cls-1" x="16.77" y="16.56" width="30.57" height="30.57"/><rect class="cls-1" x="2.76" y="2.55" width="11.69" height="11.68"/><rect class="cls-1" x="49.68" y="49.46" width="81.42" height="22.3"/><rect class="cls-1" x="49.68" y="2.55" width="81.42" height="44.58"/><rect class="cls-1" x="2.76" y="49.46" width="44.59" height="22.3"/><path class="cls-2" d="M144.68,38.34h8.87v1.35h-7.42v5.23h5.49v1.31h-5.49V53.5h-1.46Z"/><path class="cls-2" d="M154.79,45.92c0-4.75,2.68-7.87,6.39-7.87s6.39,3.11,6.39,7.87-2.68,7.87-6.39,7.87S154.79,50.68,154.79,45.92Zm11.33,0c0-4.12-2.07-6.54-4.94-6.54s-4.94,2.42-4.94,6.54,2.07,6.56,4.94,6.56S166.12,50,166.12,45.92Z"/><path class="cls-2" d="M170.74,38.34h5.08c3.38,0,5.27,1.43,5.27,4.1,0,2.46-1.43,3.69-3.63,4.1l3.83,7h-1.64l-3.71-6.8h-3.77v6.8h-1.43Zm5,7.07c2.5,0,3.91-.72,3.91-2.91s-1.39-2.83-3.93-2.83h-3.52v5.74Z"/><path class="cls-2" d="M143.95,71.36c0-4.59,2.52-7.81,6.31-7.81,3.07,0,4.77,1.82,5.49,4.63l-1.39.35c-.68-2.4-1.8-3.65-4.12-3.65-2.93,0-4.84,2.54-4.84,6.43,0,4.2,1.93,6.66,4.88,6.66,2.25,0,3.67-1.31,4.32-3.85l1.39.31c-.74,3-2.71,4.86-5.74,4.86C146.43,79.29,143.95,76.2,143.95,71.36Z"/><path class="cls-2" d="M158.07,71.42c0-4.75,2.68-7.87,6.39-7.87s6.39,3.11,6.39,7.87-2.68,7.87-6.39,7.87S158.07,76.18,158.07,71.42Zm11.33,0c0-4.12-2.07-6.54-4.94-6.54s-4.94,2.42-4.94,6.54S161.6,78,164.46,78,169.4,75.54,169.4,71.42Z"/><path class="cls-2" d="M174,63.84h1.88L181,77.12h0l5-13.28H188V79h-1.46V66.3h0c-.21.68-.57,1.68-.94,2.66l-3.93,10h-1.33l-3.93-10c-.37-1-.62-1.62-.94-2.71h0V79H174Z"/><path class="cls-2" d="M191.88,63.84h5c3.3,0,5.31,1.35,5.31,4.14,0,3.05-2.25,4.3-5.45,4.3h-3.44V79h-1.46Zm5,7.15c2.5,0,3.89-.78,3.89-3s-1.37-2.85-3.91-2.85h-3.52V71Z"/><path class="cls-2" d="M204.5,73.88v-10H206v9.79C206,76.11,207.21,78,210,78s4.06-1.76,4.06-4.28V63.84h1.46v10c0,3-1.84,5.43-5.53,5.43S204.5,76.89,204.5,73.88Z"/><path class="cls-2" d="M223,65.19h-4.9V63.84H229.3v1.35h-4.9V79H223Z"/><path class="cls-2" d="M234.27,63.78h1.58L241.21,79H239.7l-1.62-4.67h-6.15L230.31,79H228.9ZM237.63,73,235,65.5h0L232.38,73Z"/><path class="cls-2" d="M245.71,65.19h-4.9V63.84h11.25v1.35h-4.9V79h-1.46Z"/><path class="cls-2" d="M254.91,63.84h1.46V79h-1.46Z"/><path class="cls-2" d="M259.73,71.42c0-4.75,2.68-7.87,6.39-7.87s6.39,3.11,6.39,7.87-2.68,7.87-6.39,7.87S259.73,76.18,259.73,71.42Zm11.33,0c0-4.12-2.07-6.54-4.94-6.54s-4.94,2.42-4.94,6.54S263.25,78,266.12,78,271.06,75.54,271.06,71.42Z"/><path class="cls-2" d="M275.68,63.84h1.56l8.36,12.5h0V63.84H287V79h-1.29l-8.63-12.89h0V79h-1.37Z"/><path class="cls-2" d="M295.07,63.78h1.58L302,79H300.5l-1.62-4.67h-6.15L291.11,79H289.7ZM298.43,73l-2.6-7.54h0L293.18,73Z"/><path class="cls-2" d="M304.71,63.84h1.45V77.67h7.42V79h-8.87Z"/><path class="cls-2" d="M144.68,89.34h9.06v1.35h-7.6v5.14h5.68v1.31h-5.68v6h8v1.33h-9.49Z"/><path class="cls-2" d="M157.07,89.34h1.56l8.36,12.5h0V89.34h1.37V104.5h-1.29l-8.63-12.89h0V104.5h-1.37Z"/><path class="cls-2" d="M171.56,96.86c0-4.78,2.66-7.81,6.33-7.81,2.87,0,4.73,1.62,5.51,4.65L182,94c-.72-2.5-1.88-3.65-4.14-3.65-2.62,0-4.86,2.15-4.86,6.41s2,6.68,4.9,6.68c2.54,0,4.22-1.78,4.2-4.86h-3.67V97.37h5.08v7.13h-1.31v-2.32h0a4.61,4.61,0,0,1-4.38,2.6C173.81,104.79,171.56,101.41,171.56,96.86Z"/><path class="cls-2" d="M187.32,89.34h1.45V104.5h-1.45Z"/><path class="cls-2" d="M192.88,89.34h1.56l8.36,12.5h0V89.34h1.37V104.5h-1.29l-8.63-12.89h0V104.5h-1.37Z"/><path class="cls-2" d="M208.11,89.34h9.06v1.35h-7.6v5.14h5.68v1.31h-5.68v6h8v1.33h-9.49Z"/><path class="cls-2" d="M220.49,89.34h9.06v1.35h-7.6v5.14h5.68v1.31h-5.68v6h8v1.33h-9.49Z"/><path class="cls-2" d="M232.87,89.34H238c3.38,0,5.27,1.43,5.27,4.1,0,2.46-1.43,3.69-3.63,4.1l3.83,7h-1.64l-3.71-6.8h-3.77v6.8h-1.43Zm5,7.07c2.5,0,3.91-.72,3.91-2.91s-1.39-2.83-3.93-2.83h-3.53v5.74Z"/><path class="cls-2" d="M246.83,89.34h1.46V104.5h-1.46Z"/><path class="cls-2" d="M252.39,89.34h1.56l8.36,12.5h0V89.34h1.37V104.5h-1.29L253.8,91.61h0V104.5h-1.37Z"/><path class="cls-2" d="M266.88,96.86c0-4.78,2.66-7.81,6.33-7.81,2.87,0,4.73,1.62,5.51,4.65l-1.39.33c-.72-2.5-1.88-3.65-4.14-3.65-2.62,0-4.86,2.15-4.86,6.41s2,6.68,4.9,6.68c2.54,0,4.22-1.78,4.2-4.86h-3.67V97.37h5.08v7.13h-1.31v-2.32h0a4.61,4.61,0,0,1-4.39,2.6C269.14,104.79,266.88,101.41,266.88,96.86Z"/><path class="cls-2" d="M285.95,100.75c0-2.21,1.6-3.61,3.57-4.65a6.77,6.77,0,0,1-1-3.48A3.37,3.37,0,0,1,292,89.05,2.84,2.84,0,0,1,295.17,92c0,2.09-1.7,3.36-3.83,4.45.37.55.84,1.19,1.39,1.91a30.1,30.1,0,0,0,2.62,3,9,9,0,0,0,1.6-4.43h1.37a10.81,10.81,0,0,1-2,5.21,4.85,4.85,0,0,0,3.07,1.29v1.29a6.21,6.21,0,0,1-4-1.6,6.4,6.4,0,0,1-4.43,1.68C287.61,104.79,285.95,103.17,285.95,100.75Zm8.53,1.56A30.81,30.81,0,0,1,291.58,99c-.57-.72-1.09-1.35-1.5-2-1.6.92-2.68,2.13-2.68,3.59,0,1.82,1.23,2.91,3.65,2.91A5,5,0,0,0,294.47,102.31Zm-.64-10.25a1.69,1.69,0,0,0-1.84-1.8,2,2,0,0,0-2.13,2.29,5.52,5.52,0,0,0,.9,3C292.42,94.65,293.84,93.68,293.84,92.06Z"/><path class="cls-2" d="M143.93,126.27l1.29-.47a4.27,4.27,0,0,0,4.34,3.2c2.27,0,3.75-1,3.75-2.75s-.76-2.38-4-3.4-4.92-1.91-4.92-4.41c0-2.17,1.95-3.89,4.71-3.89a5.07,5.07,0,0,1,5.21,3.48l-1.23.57a3.87,3.87,0,0,0-4-2.75c-2,0-3.26,1.09-3.26,2.48,0,1.7,1,2.27,4.2,3.3s4.71,2,4.71,4.51-2.23,4.14-5.27,4.14A5.46,5.46,0,0,1,143.93,126.27Z"/><path class="cls-2" d="M157,122.36c0-4.59,2.52-7.81,6.31-7.81,3.07,0,4.77,1.82,5.49,4.63l-1.39.35c-.68-2.4-1.8-3.65-4.12-3.65-2.93,0-4.84,2.54-4.84,6.43,0,4.2,1.93,6.66,4.88,6.66,2.25,0,3.67-1.31,4.32-3.85l1.39.31c-.74,3-2.71,4.86-5.74,4.86C159.53,130.29,157,127.2,157,122.36Z"/><path class="cls-2" d="M172.32,114.84h1.46V130h-1.46Z"/><path class="cls-2" d="M177.87,114.84h9.06v1.35h-7.6v5.14H185v1.31h-5.68v6h8V130h-9.49Z"/><path class="cls-2" d="M190.25,114.84h1.56l8.36,12.5h0v-12.5h1.37V130H200.3l-8.63-12.89h0V130h-1.37Z"/><path class="cls-2" d="M204.75,122.36c0-4.59,2.52-7.81,6.31-7.81,3.07,0,4.78,1.82,5.49,4.63l-1.39.35c-.68-2.4-1.8-3.65-4.12-3.65-2.93,0-4.84,2.54-4.84,6.43,0,4.2,1.93,6.66,4.88,6.66,2.25,0,3.67-1.31,4.32-3.85l1.39.31c-.74,3-2.71,4.86-5.74,4.86C207.23,130.29,204.75,127.2,204.75,122.36Z"/><path class="cls-2" d="M219.82,114.84h9.06v1.35h-7.6v5.14h5.68v1.31h-5.68v6h8V130h-9.49Z"/><path class="cls-2" d="M231,126.27l1.29-.47a4.26,4.26,0,0,0,4.34,3.2c2.27,0,3.75-1,3.75-2.75s-.76-2.38-4-3.4-4.92-1.91-4.92-4.41c0-2.17,1.95-3.89,4.71-3.89a5.07,5.07,0,0,1,5.21,3.48l-1.23.57a3.87,3.87,0,0,0-4-2.75c-2,0-3.26,1.09-3.26,2.48,0,1.7,1,2.27,4.2,3.3s4.71,2,4.71,4.51-2.23,4.14-5.27,4.14A5.46,5.46,0,0,1,231,126.27Z"/><path class="cls-1" d="M144.51,25.65V2.71h5V25.65Z"/><path class="cls-1" d="M155.11,25.65V2.71h5.05l9.61,14.63h.06V2.71h4.65V25.65h-4.65l-10-14.76h-.06V25.65Z"/><path class="cls-1" d="M178.58,20.44l3.81-2.26a6.81,6.81,0,0,0,6.2,3.91c2.33,0,4-.87,4-2.64s-1.64-2.48-4.65-3.32c-4.09-1.15-8.37-2.2-8.37-7,0-4.28,3.35-6.85,8.28-6.85A10.31,10.31,0,0,1,197,7l-3.5,2.67a6.84,6.84,0,0,0-5.64-3.26c-2.14,0-3.32.93-3.32,2.29,0,1.83,1.71,2.48,4.71,3.32,4,1.08,8.31,2.36,8.31,7.1,0,3.69-2.79,7-9.18,7C183.38,26.09,180.28,23.73,178.58,20.44Z"/><path class="cls-1" d="M206.17,25.65V6.93h-6.82V2.71h18.73V6.93h-6.85V25.65Z"/><path class="cls-1" d="M222,25.65V2.71h5V25.65Z"/><path class="cls-1" d="M237.72,25.65V6.93H230.9V2.71h18.73V6.93h-6.85V25.65Z"/><path class="cls-1" d="M252.91,16.88V2.71H258v14c0,3.32,1.27,5.18,4.28,5.18s4.22-1.83,4.22-5.18v-14h5V16.85c0,5.64-2.85,9.18-9.24,9.18S252.91,22.49,252.91,16.88Z"/><path class="cls-1" d="M281.53,25.65V6.93h-6.82V2.71h18.73V6.93h-6.85V25.65Z"/><path class="cls-1" d="M297.09,25.65V2.71h15.63V6.93H302.14v4.93h7.66v4h-7.66v5.71h11.13v4.09Z"/></svg>